<svg id="SvgjsSvg1006" width="280" height="292" xmlns="http://www.w3.org/2000/svg" version="1.1" xmlns:xlink="http://www.w3.org/1999/xlink" xmlns:svgjs="http://svgjs.com/svgjs"><defs id="SvgjsDefs1007"><marker id="SvgjsMarker1044" markerWidth="14" markerHeight="12" refX="16" refY="6" viewBox="0 0 14 12" orient="auto" markerUnits="userSpaceOnUse"><path id="SvgjsPath1045" d="M1,1 L14,6 L1,11L1,1" fill="#ffffff" stroke="#323232" stroke-width="2"></path></marker></defs><g id="SvgjsG1008" transform="translate(25,25)"><path id="SvgjsPath1009" d="M 0 4Q 0 0 4 0L 226 0Q 230 0 230 4L 230 90Q 230 94 226 94L 4 94Q 0 94 0 90Z" stroke="#323232" stroke-width="2" fill-opacity="1" fill="#ffffff"></path><path id="SvgjsPath1010" d="M 0 30L 230 30" stroke="#323232" stroke-width="2" fill="none"></path><path id="SvgjsPath1011" d="M 0 0L 230 0L 230 94L 0 94Z" stroke="none" fill="none"></path><g id="SvgjsG1012"><text id="SvgjsText1013" font-family="微软雅黑" text-anchor="middle" font-size="13px" width="81" fill="#323232" font-weight="700" align="middle" anchor="middle" family="微软雅黑" size="13px" weight="700" font-style="" y="5.05" transform="rotate(0)"><tspan id="SvgjsTspan1014" dy="16" x="115"><tspan id="SvgjsTspan1015" style="text-decoration:;">BaseExample</tspan></tspan></text></g><g id="SvgjsG1016"><text id="SvgjsText1017" font-family="微软雅黑" text-anchor="start" font-size="13px" width="120" fill="#323232" font-weight="400" align="middle" anchor="start" family="微软雅黑" size="13px" weight="400" font-style="" y="28.05" transform="rotate(0)"><tspan id="SvgjsTspan1018" dy="16" x="10"><tspan id="SvgjsTspan1019" style="text-decoration:;"> </tspan></tspan><tspan id="SvgjsTspan1020" dy="16" x="10"><tspan id="SvgjsTspan1021" style="text-decoration:;">+ method01(): void</tspan></tspan><tspan id="SvgjsTspan1022" dy="16" x="10"><tspan id="SvgjsTspan1023" style="text-decoration:;">+ method02(): void</tspan></tspan><tspan id="SvgjsTspan1024" dy="16" x="10"><tspan id="SvgjsTspan1025" style="text-decoration:;"> </tspan></tspan></text></g></g><g id="SvgjsG1026" transform="translate(25,189)"><path id="SvgjsPath1027" d="M 0 4Q 0 0 4 0L 226 0Q 230 0 230 4L 230 74Q 230 78 226 78L 4 78Q 0 78 0 74Z" stroke="#323232" stroke-width="2" fill-opacity="1" fill="#ffffff"></path><path id="SvgjsPath1028" d="M 0 30L 230 30" stroke="#323232" stroke-width="2" fill="none"></path><path id="SvgjsPath1029" d="M 0 0L 230 0L 230 78L 0 78Z" stroke="none" fill="none"></path><g id="SvgjsG1030"><text id="SvgjsText1031" font-family="微软雅黑" text-anchor="middle" font-size="13px" width="100" fill="#323232" font-weight="700" align="middle" anchor="middle" family="微软雅黑" size="13px" weight="700" font-style="" y="5.05" transform="rotate(0)"><tspan id="SvgjsTspan1032" dy="16" x="115"><tspan id="SvgjsTspan1033" style="text-decoration:;">ExtendsExample</tspan></tspan></text></g><g id="SvgjsG1034"><text id="SvgjsText1035" font-family="微软雅黑" text-anchor="start" font-size="13px" width="116" fill="#323232" font-weight="400" align="middle" anchor="start" family="微软雅黑" size="13px" weight="400" font-style="" y="28.05" transform="rotate(0)"><tspan id="SvgjsTspan1036" dy="16" x="10"><tspan id="SvgjsTspan1037" style="text-decoration:;"> </tspan></tspan><tspan id="SvgjsTspan1038" dy="16" x="10"><tspan id="SvgjsTspan1039" style="text-decoration:;">+method03(): void</tspan></tspan><tspan id="SvgjsTspan1040" dy="16" x="10"><tspan id="SvgjsTspan1041" style="text-decoration:;"> </tspan></tspan></text></g></g><g id="SvgjsG1042"><path id="SvgjsPath1043" d="M140 189L140 154L140 154L140 119" stroke="#323232" stroke-width="2" fill="none" marker-end="url(#SvgjsMarker1044)"></path></g></svg>